<mxfile host="app.diagrams.net" modified="2021-12-21T13:20:00.239Z" agent="5.0 (Windows NT 10.0; Win64; x64) AppleWebKit/537.36 (KHTML, like Gecko) Chrome/96.0.4664.110 Safari/537.36" etag="NdFqcg17SBl57lBcl-ox" version="16.0.0" type="github">
  <diagram id="UXoUPtAeHOVSdncbpQZQ" name="Page-1">
    <mxGraphModel dx="1038" dy="579" grid="1" gridSize="10" guides="1" tooltips="1" connect="1" arrows="1" fold="1" page="1" pageScale="1" pageWidth="827" pageHeight="1169" math="0" shadow="0">
      <root>
        <mxCell id="0" />
        <mxCell id="1" parent="0" />
        <mxCell id="PIPFyShP-Cy4KktQ9gSj-2" value="店端" style="shape=umlLifeline;perimeter=lifelinePerimeter;whiteSpace=wrap;html=1;container=1;collapsible=0;recursiveResize=0;outlineConnect=0;" parent="1" vertex="1">
          <mxGeometry x="110" y="580" width="100" height="480" as="geometry" />
        </mxCell>
        <mxCell id="PIPFyShP-Cy4KktQ9gSj-46" value="" style="html=1;points=[];perimeter=orthogonalPerimeter;" parent="PIPFyShP-Cy4KktQ9gSj-2" vertex="1">
          <mxGeometry x="50.25" y="310" width="10" height="50" as="geometry" />
        </mxCell>
        <mxCell id="PIPFyShP-Cy4KktQ9gSj-3" value="议案模块" style="shape=umlLifeline;perimeter=lifelinePerimeter;whiteSpace=wrap;html=1;container=1;collapsible=0;recursiveResize=0;outlineConnect=0;" parent="1" vertex="1">
          <mxGeometry x="600" y="580" width="100" height="490" as="geometry" />
        </mxCell>
        <mxCell id="0-_Hgh8Qh34FpaSm9Dei-121" value="" style="html=1;points=[];perimeter=orthogonalPerimeter;" vertex="1" parent="PIPFyShP-Cy4KktQ9gSj-3">
          <mxGeometry x="45" y="70" width="10" height="80" as="geometry" />
        </mxCell>
        <mxCell id="PIPFyShP-Cy4KktQ9gSj-4" value="DTR模块" style="shape=umlLifeline;perimeter=lifelinePerimeter;whiteSpace=wrap;html=1;container=1;collapsible=0;recursiveResize=0;outlineConnect=0;" parent="1" vertex="1">
          <mxGeometry x="440" y="580" width="100" height="480" as="geometry" />
        </mxCell>
        <mxCell id="PIPFyShP-Cy4KktQ9gSj-7" value="" style="html=1;points=[];perimeter=orthogonalPerimeter;" parent="PIPFyShP-Cy4KktQ9gSj-4" vertex="1">
          <mxGeometry x="45.25" y="130" width="20" height="70" as="geometry" />
        </mxCell>
        <mxCell id="PIPFyShP-Cy4KktQ9gSj-25" value="" style="html=1;points=[];perimeter=orthogonalPerimeter;" parent="PIPFyShP-Cy4KktQ9gSj-4" vertex="1">
          <mxGeometry x="50.25" y="240" width="10" height="70" as="geometry" />
        </mxCell>
        <mxCell id="PIPFyShP-Cy4KktQ9gSj-44" value="返回审核状态" style="html=1;verticalAlign=bottom;endArrow=open;dashed=1;endSize=8;rounded=0;" parent="PIPFyShP-Cy4KktQ9gSj-4" edge="1">
          <mxGeometry relative="1" as="geometry">
            <mxPoint x="45.25" y="310" as="sourcePoint" />
            <mxPoint x="-275.25" y="310" as="targetPoint" />
          </mxGeometry>
        </mxCell>
        <mxCell id="PIPFyShP-Cy4KktQ9gSj-47" value="" style="html=1;points=[];perimeter=orthogonalPerimeter;" parent="PIPFyShP-Cy4KktQ9gSj-4" vertex="1">
          <mxGeometry x="50.25" y="350" width="10" height="80" as="geometry" />
        </mxCell>
        <mxCell id="PIPFyShP-Cy4KktQ9gSj-5" value="厂端" style="shape=umlLifeline;perimeter=lifelinePerimeter;whiteSpace=wrap;html=1;container=1;collapsible=0;recursiveResize=0;outlineConnect=0;" parent="1" vertex="1">
          <mxGeometry x="270" y="580" width="100" height="480" as="geometry" />
        </mxCell>
        <mxCell id="PIPFyShP-Cy4KktQ9gSj-22" value="返回DTR" style="html=1;verticalAlign=bottom;endArrow=open;dashed=1;endSize=8;rounded=0;exitX=0;exitY=0.85;exitDx=0;exitDy=0;exitPerimeter=0;" parent="PIPFyShP-Cy4KktQ9gSj-5" source="PIPFyShP-Cy4KktQ9gSj-7" edge="1">
          <mxGeometry relative="1" as="geometry">
            <mxPoint x="135.25" y="189.5" as="sourcePoint" />
            <mxPoint x="55.25" y="189.5" as="targetPoint" />
          </mxGeometry>
        </mxCell>
        <mxCell id="PIPFyShP-Cy4KktQ9gSj-23" value="" style="html=1;points=[];perimeter=orthogonalPerimeter;" parent="PIPFyShP-Cy4KktQ9gSj-5" vertex="1">
          <mxGeometry x="50.25" y="190" width="10" height="50" as="geometry" />
        </mxCell>
        <mxCell id="PIPFyShP-Cy4KktQ9gSj-6" value="FTR" style="shape=umlLifeline;perimeter=lifelinePerimeter;whiteSpace=wrap;html=1;container=1;collapsible=0;recursiveResize=0;outlineConnect=0;" parent="1" vertex="1">
          <mxGeometry x="760" y="580" width="100" height="480" as="geometry" />
        </mxCell>
        <mxCell id="0-_Hgh8Qh34FpaSm9Dei-123" value="" style="html=1;points=[];perimeter=orthogonalPerimeter;" vertex="1" parent="PIPFyShP-Cy4KktQ9gSj-6">
          <mxGeometry x="45" y="400" width="10" height="80" as="geometry" />
        </mxCell>
        <mxCell id="PIPFyShP-Cy4KktQ9gSj-8" value="" style="html=1;verticalAlign=bottom;startArrow=oval;endArrow=block;startSize=8;rounded=0;" parent="1" edge="1">
          <mxGeometry relative="1" as="geometry">
            <mxPoint x="165.25" y="710" as="sourcePoint" />
            <mxPoint x="494.75" y="710" as="targetPoint" />
          </mxGeometry>
        </mxCell>
        <mxCell id="PIPFyShP-Cy4KktQ9gSj-10" value="店端基于工单上报DTR" style="edgeLabel;html=1;align=center;verticalAlign=middle;resizable=0;points=[];" parent="PIPFyShP-Cy4KktQ9gSj-8" vertex="1" connectable="0">
          <mxGeometry x="-0.5399" y="-1" relative="1" as="geometry">
            <mxPoint as="offset" />
          </mxGeometry>
        </mxCell>
        <mxCell id="PIPFyShP-Cy4KktQ9gSj-24" value="审核" style="html=1;verticalAlign=bottom;endArrow=block;rounded=0;" parent="1" edge="1">
          <mxGeometry width="80" relative="1" as="geometry">
            <mxPoint x="325.25" y="820" as="sourcePoint" />
            <mxPoint x="494.75" y="820" as="targetPoint" />
          </mxGeometry>
        </mxCell>
        <mxCell id="PIPFyShP-Cy4KktQ9gSj-48" value="重报或申诉" style="html=1;verticalAlign=bottom;endArrow=block;rounded=0;" parent="1" edge="1">
          <mxGeometry relative="1" as="geometry">
            <mxPoint x="165.25" y="930" as="sourcePoint" />
            <mxPoint x="494.75" y="930" as="targetPoint" />
          </mxGeometry>
        </mxCell>
        <mxCell id="PIPFyShP-Cy4KktQ9gSj-49" value="return" style="html=1;verticalAlign=bottom;endArrow=open;dashed=1;endSize=8;rounded=0;" parent="1" edge="1">
          <mxGeometry relative="1" as="geometry">
            <mxPoint x="165.25" y="1006" as="targetPoint" />
            <Array as="points">
              <mxPoint x="435.25" y="1006" />
            </Array>
            <mxPoint x="494.75" y="1006" as="sourcePoint" />
          </mxGeometry>
        </mxCell>
        <mxCell id="0-_Hgh8Qh34FpaSm9Dei-119" value="" style="html=1;verticalAlign=bottom;endArrow=block;rounded=0;" edge="1" parent="1" target="PIPFyShP-Cy4KktQ9gSj-3">
          <mxGeometry width="80" relative="1" as="geometry">
            <mxPoint x="320" y="660" as="sourcePoint" />
            <mxPoint x="400" y="660" as="targetPoint" />
          </mxGeometry>
        </mxCell>
        <mxCell id="0-_Hgh8Qh34FpaSm9Dei-120" value="新建议案" style="edgeLabel;html=1;align=center;verticalAlign=middle;resizable=0;points=[];" vertex="1" connectable="0" parent="0-_Hgh8Qh34FpaSm9Dei-119">
          <mxGeometry x="-0.4392" relative="1" as="geometry">
            <mxPoint as="offset" />
          </mxGeometry>
        </mxCell>
        <mxCell id="0-_Hgh8Qh34FpaSm9Dei-122" value="审核通过的DTR制作成FTR" style="html=1;verticalAlign=bottom;endArrow=block;rounded=0;" edge="1" parent="1" target="PIPFyShP-Cy4KktQ9gSj-6">
          <mxGeometry width="80" relative="1" as="geometry">
            <mxPoint x="320" y="1050" as="sourcePoint" />
            <mxPoint x="400" y="1050" as="targetPoint" />
          </mxGeometry>
        </mxCell>
      </root>
    </mxGraphModel>
  </diagram>
</mxfile>
